<svg width="120" height="132" viewBox="0 0 120 132" fill="none" xmlns="http://www.w3.org/2000/svg">
  <path
    d="M118.364 53.2006C118.364 85.1562 78.08 118.437 64.5528 128.715C63.2926 129.549 61.7586 130 60.1818 130C58.6051 130 57.0711 129.549 55.8109 128.715C42.2836 118.437 2 85.1562 2 53.2006C2 39.6214 8.12986 26.5984 19.0411 16.9963C29.9522 7.39434 44.751 2 60.1818 2C75.6127 2 90.4115 7.39434 101.323 16.9963C112.234 26.5984 118.364 39.6214 118.364 53.2006Z"
    fill="#FF6B35"
    stroke="white"
    stroke-linecap="round"
    stroke-linejoin="round"
  />
  <path
    d="M60.182 74.0348C67.8325 74.0348 74.0348 67.8325 74.0348 60.182C74.0348 52.5312 67.8325 46.3292 60.182 46.3292C52.5312 46.3292 46.3292 52.5312 46.3292 60.182C46.3292 67.8325 52.5312 74.0348 60.182 74.0348Z"
    fill="white"
  />
</svg>
